<?xml version="1.0" encoding="utf-8"?>
<!-- Generator: Adobe Illustrator 26.5.0, SVG Export Plug-In . SVG Version: 6.00 Build 0)  -->
<svg version="1.1" id="Calque_1" xmlns="http://www.w3.org/2000/svg" xmlns:xlink="http://www.w3.org/1999/xlink" x="0px" y="0px"
	 viewBox="0 0 124 125" style="enable-background:new 0 0 124 125;" xml:space="preserve">
<style type="text/css">
	.st0{fill:#FFFFFF;}
	.st1{fill-rule:evenodd;clip-rule:evenodd;fill:#000091;}
	.st2{fill:#000091;}
	.st3{fill:#E1000F;}
</style>
<circle class="st0" cx="63.5" cy="63.3" r="57.4"/>
<polygon class="st1" points="72.5,102.4 72.5,90.3 13.6,90.3 20.5,99.8 31.7,106.3 47.1,115.8 66.4,118.2 88.6,112.1 101.8,102.4 
	"/>
<polygon class="st2" points="55.4,48.2 68.4,43.2 57.8,51.7 61.3,52.8 58.5,54.1 65.6,56.7 56.7,58.2 61.5,69.1 54.4,60.8 
	53.3,64.7 51,61.1 49.4,70 47.8,61.3 45.6,65.5 44.5,62.2 34.9,65.1 43.7,57.6 38,56.4 43,54.2 36.4,47 43.6,49.4 41,40.3 
	46.1,46.8 48.2,42.6 48.6,48.2 51.7,40 52,47.6 55.5,45.4 "/>
<path class="st1" d="M104.4,102.4H92.6v-8h-6.1v8h-12v-15c-1.3,0-2.5-1.1-2.5-2.4l17.4-15l7.5,6.4v-3.9h5v8.2l5,4.3
	c0,1.4-1.1,2.5-2.5,2.5V102.4z"/>
<path class="st2" d="M72.5,89C71,88.2,70,86.7,70,85v-0.9l0.7-0.6l14.1-12.1V12L68.6,7.6v30.7l-11.2,6v1l10.1-3.9l11.9-4.5l-9.9,7.9
	l-7.6,6.1l4.8,1.4l-3.3,1.6l2.7,1l7.1,2.6l-7.4,1.2l-6.4,1.1l1,2.2h11.7v11.6h-6.6l3.2,7.2l-6.2-7.2h-6.6v-7.7L55.2,65l-0.1,0.3
	l-1.2,4.2l-2-3l-0.7,3.9l-1.9,11.1l-2-11.1l-0.6-3.2l-1.8,3.3l-0.6-1.8v4.8H28.1v-4.3l-2,0.6l2-1.7V62h7.2l3.8-3.2l-1.7-0.3
	l-6.2-1.2l5.8-2.6l2.5-1.1l-4.7-5.1l-5.2-5.7l7.3,2.4l3.6,1.2L38.9,41L38,37.9l-18,9V30.7l-7.9,10.4L8.6,61.9L7,70.8l6.6,20.1h58.9
	V89z M16.5,73.5h-5L10.7,62h5.9L16.5,73.5z"/>
<rect x="17" y="88.9" class="st0" width="56.9" height="2.7"/>
<path class="st3" d="M63.3,122.2C30.9,122.2,4.7,96,4.7,63.6C4.8,31.2,31,5,63.4,5S122,31.3,122,63.6C122,96,95.7,122.2,63.3,122.2z
	 M63.3,13c-28,0-50.6,22.7-50.6,50.7s22.7,50.6,50.7,50.6S114,91.6,114,63.7C114,35.7,91.3,13,63.3,13z"/>
</svg>
