<?xml version="1.0" encoding="utf-8"?>
<!-- Generator: Adobe Illustrator 26.5.0, SVG Export Plug-In . SVG Version: 6.00 Build 0)  -->
<svg version="1.1" id="Calque_1" xmlns="http://www.w3.org/2000/svg" xmlns:xlink="http://www.w3.org/1999/xlink" x="0px" y="0px"
	 viewBox="0 0 127.6 127.6" style="enable-background:new 0 0 127.6 127.6;" xml:space="preserve">
<style type="text/css">
	.st0{fill:#FFFFFF;}
	.st1{fill-rule:evenodd;clip-rule:evenodd;fill:#000091;}
	.st2{fill:#000091;}
	.st3{fill:#E1000F;}
</style>
<circle class="st0" cx="64.1" cy="63.9" r="56"/>
<path class="st1" d="M87.6,55.2L73.8,57l-1.2-9.4l-7.2,0.9l1.2,9.4l-13.8,1.8l-2.3-17.4c-1.6,0.2-3.1-0.9-3.3-2.5l0,0l18-20.1L75,26
	l-0.6-4.6l5.8-0.8l1.3,9.5l6.5,4.2c0.2,1.6-0.9,3.1-2.5,3.3L87.6,55.2z"/>
<path class="st2" d="M98.3,93l-5,9.5c-0.4,0.8-1.3,1.2-2.2,1.2c-0.9-0.1-1.7-0.7-1.9-1.5l-3.8-11l-3.4,8c-0.5,1.1-1.8,1.7-3,1.2
	c-0.7-0.3-1.2-0.9-1.3-1.7l-3.2-19.4l-3.8,29.5c-0.2,1.1-1.1,1.9-2.2,1.9h-0.1c-1.1,0-2-0.8-2.2-1.8L62.1,86l-2.7,5.7
	c-0.4,0.8-1.1,1.3-2,1.3H17.5l3.5,4.9l14.2,12.5l15.7,6.6h25.6l15.8-8.8L109.8,93H98.3z"/>
<path class="st2" d="M53.7,61.8l-44.5,2l-1.4,6.7l4.1,14.6l5.2,7.2v-3.8H56L61,78c0.4-0.9,1.4-1.4,2.3-1.3c1,0.1,1.7,0.9,1.9,1.8
	l3.1,16.1l3.8-30c0.2-1.1,1.1-1.9,2.2-1.8c1.1,0,2.1,0.8,2.3,1.8l4.3,25.8l2.7-6.5c0.5-1.1,1.8-1.7,3-1.2c0.6,0.2,1,0.7,1.2,1.3
	l4,11.7l3.2-6.1c0.4-0.7,1.2-1.2,2-1.2h14.8l5.6-14.1V53.2L53.7,61.8z"/>
<path class="st3" d="M63.8,122.4c-32.4,0-58.6-26.2-58.6-58.6S31.4,5.2,63.8,5.2s58.6,26.2,58.6,58.6
	C122.4,96.1,96.1,122.4,63.8,122.4z M63.8,13.2c-28,0-50.6,22.7-50.6,50.6s22.7,50.6,50.6,50.6s50.6-22.7,50.6-50.6
	C114.4,35.8,91.7,13.2,63.8,13.2z"/>
</svg>
