<?xml version="1.0" encoding="utf-8"?>
<!-- Generator: Adobe Illustrator 26.5.0, SVG Export Plug-In . SVG Version: 6.00 Build 0)  -->
<svg version="1.1" id="Calque_1" xmlns="http://www.w3.org/2000/svg" xmlns:xlink="http://www.w3.org/1999/xlink" x="0px" y="0px"
	 viewBox="0 0 127.6 127.6" style="enable-background:new 0 0 127.6 127.6;" xml:space="preserve">
<style type="text/css">
	.st0{fill:#FFFFFF;}
	.st1{fill-rule:evenodd;clip-rule:evenodd;fill:#000091;}
	.st2{fill:#000091;}
	.st3{fill:#E1000F;}
</style>
<circle class="st0" cx="64.1" cy="62.9" r="56"/>
<path class="st1" d="M102.8,93.8H90.9v-8.1h-6.2v8.1h-12v-15c-1.4,0-2.5-1.1-2.5-2.5l17.5-15l7.5,6.4v-4h5V72l5,4.3
	c0,1.4-1.1,2.5-2.5,2.5L102.8,93.8z"/>
<polygon class="st2" points="17.5,92.8 110.1,92.8 100.9,103.8 91.8,110.7 77.1,116.8 59,118.2 43.5,114.5 32,108.2 23.5,101 "/>
<path class="st2" d="M76.5,28.4c5.2,3.2,6.8,10.1,3.6,15.3c-0.4,0.6-0.8,1.1-1.2,1.6c-2.2,2.3-5.4,3.6-9.6,3.6h-42
	c-1.6,0.1-2.9-1.1-3-2.7c-0.1-1.6,1.1-2.9,2.7-3c0.1,0,0.2,0,0.3,0h41.9c3,0,4.6-0.9,5.4-1.8c0.9-1.1,1.4-2.5,1.3-4
	c-0.2-1.7-1.2-3.3-2.6-4.2s-3.8-1.5-7.2,0.9c-1.4,0.7-3.1,0-3.8-1.4c-0.5-1.1-0.2-2.5,0.7-3.3C68.1,25.9,72.9,26.1,76.5,28.4
	L76.5,28.4z"/>
<path class="st2" d="M30.2,34.5c0-1.6,1.3-2.8,2.8-2.9h14.4c1.6,0.1,2.8,1.5,2.7,3s-1.2,2.6-2.7,2.7H33
	C31.4,37.4,30.2,36.1,30.2,34.5z"/>
<path class="st2" d="M70.3,66.1c-0.1,1.6-0.6,3.1-1.5,4.4c-1,1.6-2.3,2.9-3.9,3.8c-2,1.1-4.3,1.5-6.5,1c-2.8-0.7-5.4-2.2-7.3-4.4
	c-1.2-1-1.4-2.8-0.5-4c1-1.2,2.8-1.4,4-0.5c0.2,0.1,0.3,0.3,0.5,0.5c1.2,1.3,2.7,2.3,4.4,2.8c0.9,0.2,1.8,0,2.5-0.4
	c0.8-0.5,1.5-1.1,2-1.9c0.3-0.4,0.5-0.9,0.6-1.3l0,0c0.1-1.2-0.2-2.4-0.8-3.5c-0.4-0.7-1.1-1.2-1.8-1.5c-1.8-0.8-4.1-0.8-6.6-0.8
	H21.6c-1.6-0.1-2.8-1.5-2.7-3c0.1-1.5,1.2-2.6,2.7-2.7h34.1c2.2,0,5.7,0,8.7,1.3c1.8,0.8,3.3,2,4.3,3.7
	C69.8,61.5,70.4,63.8,70.3,66.1z"/>
<path class="st3" d="M63.8,122.4c-32.4,0-58.6-26.2-58.6-58.6S31.4,5.2,63.8,5.2s58.6,26.2,58.6,58.6
	C122.4,96.1,96.1,122.4,63.8,122.4z M63.8,13.2c-28,0-50.6,22.7-50.6,50.6s22.7,50.6,50.6,50.6s50.6-22.7,50.6-50.6
	C114.4,35.8,91.7,13.2,63.8,13.2z"/>
</svg>
