<?xml version="1.0" encoding="utf-8"?>
<!-- Generator: Adobe Illustrator 26.5.0, SVG Export Plug-In . SVG Version: 6.00 Build 0)  -->
<svg version="1.1" id="Calque_1" xmlns="http://www.w3.org/2000/svg" xmlns:xlink="http://www.w3.org/1999/xlink" x="0px" y="0px"
	 viewBox="0 0 127.6 127.6" style="enable-background:new 0 0 127.6 127.6;" xml:space="preserve">
<style type="text/css">
	.st0{fill:#FFFFFF;}
	.st1{fill-rule:evenodd;clip-rule:evenodd;fill:#000091;}
	.st2{fill:#E1000F;}
</style>
<circle class="st0" cx="64.1" cy="63.9" r="56"/>
<path class="st1" d="M97.5,95.8H87.3v-7.4h-6v7.4H71.2V82.6c-1.2,0-2.2-1-2.2-2.2l15.3-13.2l6.6,5.6v-3.4h4.4v7.2l4.4,3.8
	c0,1.2-1,2.2-2.2,2.2L97.5,95.8z"/>
<polygon class="st1" points="109.4,99.7 109.4,95.8 17,95.8 17,99.7 34.6,112.2 60.6,120.3 83.4,117.9 99.7,107.4 "/>
<g>
	<path class="st1" d="M32.3,108.5c1.9-6.8,3.3-13.8,4.3-20.8l0.1-0.9h8.1v-3.2H26.5v-7.2h11c0.2-9.6-1.4-17.4-4.8-24.7L32,50.2h7.6
		V47H16v-7.1h9.4c-2.4-3.6-4.6-7.3-6.5-11.2l-0.3-0.6l0.4-0.5C30,14,46.3,6.2,63.8,6.2c4.7,0,9.3,0.6,13.9,1.7l0.8,0.2v0.8
		c-0.1,3.2-0.2,6.5-0.5,10h10.9v7.2H65.1v3.2h11.8l-0.1,1.1c-1,8.5-2.9,16.9-5.5,25h12.1v7.2H59.9V66h7.5l-0.7,1.4
		C58.6,84.5,47.3,96,36.4,107l-5,5.1L32.3,108.5z"/>
	<path class="st0" d="M63.8,7.2L63.8,7.2c4.6,0,9.2,0.6,13.6,1.7c-0.1,3.8-0.3,7.5-0.5,11h11v5.2H64.1v5.2h11.7
		c-1.1,8.9-3.1,17.6-5.9,26.1h12.5v5.2H58.9V67h6.9c-8.5,18.2-20.6,29.7-32.5,41.7c1.9-6.9,3.3-13.9,4.3-20.9h8.2v-5.2H27.5v-5.2
		h10.9c0.3-11.4-1.8-19.5-4.9-26.1h7V46H17v-5.1h10.3c-2.8-4-5.3-8.3-7.5-12.6C30.6,15,46.7,7.2,63.8,7.2 M63.8,5.2L63.8,5.2
		L63.8,5.2L63.8,5.2c-17.8,0-34.4,8-45.5,21.8l-0.8,1l0.6,1.2c1.7,3.3,3.5,6.6,5.6,9.7H17h-2v2V46v2h2h21.5v1.2h-5h-3.2l1.4,2.9
		c3.2,6.9,4.8,14.3,4.7,23.3h-9h-2v2v5.2v2h2h16.3v1.2h-6.2h-1.7l-0.2,1.7c-0.9,6.9-2.4,13.9-4.2,20.7l-2,7.4l5.4-5.5
		c0.8-0.8,1.6-1.6,2.3-2.4c11-11.1,22.4-22.6,30.5-39.9l1.3-2.8h-3.1h-4.9v-1.3h21.5h2v-2v-5.2v-2h-2h-9.7
		c2.4-7.8,4.2-15.8,5.1-23.9l0.3-2.2h-2.3h-9.7v-1.2h21.8h2v-2V20v-2h-2H79c0.2-3.1,0.3-6,0.4-9V7.4L77.9,7
		C73.3,5.8,68.5,5.2,63.8,5.2L63.8,5.2z"/>
</g>
<path class="st2" d="M63.8,124.3c-33.4,0-60.5-27.1-60.5-60.5s27-60.6,60.5-60.6s60.5,27.1,60.5,60.5l0,0
	C124.3,97.2,97.2,124.3,63.8,124.3z M63.8,11.2c-29,0-52.5,23.5-52.5,52.5s23.5,52.5,52.5,52.5s52.5-23.5,52.5-52.5
	C116.3,34.8,92.8,11.3,63.8,11.2z"/>
</svg>
