<?xml version="1.0" encoding="utf-8"?>
<!-- Generator: Adobe Illustrator 26.5.0, SVG Export Plug-In . SVG Version: 6.00 Build 0)  -->
<svg version="1.1" id="Calque_1" xmlns="http://www.w3.org/2000/svg" xmlns:xlink="http://www.w3.org/1999/xlink" x="0px" y="0px"
	 viewBox="0 0 127.6 127.6" style="enable-background:new 0 0 127.6 127.6;" xml:space="preserve">
<style type="text/css">
	.st0{fill:#FFFFFF;}
	.st1{fill-rule:evenodd;clip-rule:evenodd;fill:#000091;}
	.st2{fill:#000091;}
	.st3{fill:#E1000F;}
</style>
<circle class="st0" cx="64.1" cy="63.9" r="56"/>
<path class="st1" d="M103.4,90H88.7V79.3H80V90H65.2V70.9c-1.8,0-3.2-1.4-3.2-3.2l22.2-19.1l9.5,8.2v-5h6.4v10.5l6.4,5.4
	c0,1.8-1.4,3.2-3.2,3.2L103.4,90L103.4,90z"/>
<rect x="17" y="90" class="st2" width="92.3" height="8.7"/>
<g>
	<path class="st1" d="M63.7,121.3c-12.8,0-24.9-4.1-35-11.9c-12.2-9.4-20-22.9-22-38.2C4.7,56,8.8,40.9,18.2,28.7
		C25.7,18.9,36,11.9,47.9,8.5l0.4-0.1l0.4,0.2C49.3,8.9,64.2,17.8,67,31c1.3,5.9-0.1,11.8-4.1,17.5l-1.2,1.6l-0.6-1.9
		C60.4,46,58.2,40,56.2,38c-0.1-0.1-0.3-0.2-0.3-0.3c-1.3-1.2-3.2-1.9-5.4-1.9c-2.9,0-6.8,1.3-9,4.8c-4.7,7.3-4.4,17.1,1,26.9
		c11.7,22,38.5,29.7,57.7,29.7h10.4l-1.2,1.6C98.4,113.1,81.8,121.3,63.7,121.3z"/>
	<path class="st0" d="M48.2,9.4c0,0,29.1,17.1,13.9,38.5c0,0-2.6-8.2-5.3-10.7l-0.2-0.1c-1.5-1.5-3.8-2.2-6.2-2.2
		c-3.6,0-7.6,1.7-9.9,5.2c-13.1,20.1,12,58.2,59.7,58.2h8.4c-11.1,14.5-27.9,22.1-44.9,22.1c-12,0-24.2-3.8-34.4-11.7
		C4.6,89.6-0.1,54.1,19,29.3C26.3,19.7,36.6,12.8,48.2,9.4 M48.4,7.3l-0.8,0.2C35.5,11,25.1,18.1,17.4,28.1
		C-2.3,53.7,2.5,90.5,28.1,110.2c10.3,7.9,22.7,12.1,35.6,12.1c18.3,0,35.3-8.3,46.4-22.9l2.5-3.2h-4.1h-8.4
		c-13.3,0-25.8-3.1-36.2-8.9C54.9,82.2,47.5,75,43.2,67c-5.1-9.5-5.5-18.9-1-25.9c2.1-3.2,5.6-4.3,8.2-4.3c1.9,0,3.6,0.6,4.7,1.5
		c0.1,0.1,0.3,0.3,0.4,0.4c1.7,1.7,3.7,6.8,4.6,9.7l1.2,3.8l2.3-3.3c4.2-5.9,5.6-12,4.3-18.3C65,17.2,49.8,8.1,49.2,7.7L48.4,7.3
		L48.4,7.3z"/>
</g>
<path class="st3" d="M63.8,124.3c-33.4,0-60.5-27.1-60.5-60.5s27-60.6,60.5-60.6s60.5,27.1,60.5,60.5l0,0
	C124.3,97.2,97.2,124.3,63.8,124.3z M63.8,11.2c-29,0-52.5,23.5-52.5,52.5s23.5,52.5,52.5,52.5s52.5-23.5,52.5-52.5
	C116.3,34.8,92.8,11.3,63.8,11.2z"/>
</svg>
