<?xml version="1.0" encoding="utf-8"?>
<!-- Generator: Adobe Illustrator 26.5.0, SVG Export Plug-In . SVG Version: 6.00 Build 0)  -->
<svg version="1.1" id="Calque_1" xmlns="http://www.w3.org/2000/svg" xmlns:xlink="http://www.w3.org/1999/xlink" x="0px" y="0px"
	 viewBox="0 0 127.6 127.6" style="enable-background:new 0 0 127.6 127.6;" xml:space="preserve">
<style type="text/css">
	.st0{fill:#FFFFFF;}
	.st1{fill-rule:evenodd;clip-rule:evenodd;fill:#000091;}
	.st2{fill:#E1000F;}
</style>
<circle class="st0" cx="64.1" cy="63.9" r="56"/>
<path class="st1" d="M67.8,86v-1.4l1-0.9l3.4-3c-3.5-12-2.6-20.7-2.6-35.8H48.3c0,1.2,0,2.5,0,3.7c0,4.4,0.1,8.9,0.5,13.3
	c0.4,4.6,1.2,9.2,2.4,13.7c1.6,5.6,3.5,11,5.9,16.3l0.3,0.7h13.1v-1.7C68.8,89.7,67.8,87.9,67.8,86z"/>
<path class="st1" d="M57,28.6c-0.8-1.6-2.8-5,0.6-8.1c0,0,1.5-2.8-0.8-4.7c0,0-4.2-5.4,1.9-10.4c7.4-6.1,15.2,3.8,12.3,9.3
	c0,0,4.7,2.8,2.9,8c-1,2.1-2.9,3.7-5.3,4c0,0,1.3,2.9-2.3,6.3c-2.3,2.3-7.6,5.8-5.5,9.2l0.9,0.9h-5.2C52.6,36.7,61.5,36.9,57,28.6z"
	/>
<path class="st1" d="M23.1,24.3c1.6,1.5,4,3.3,5,5.3c-0.1,0.4-0.1,0.8,0,1.2h5.2c0-0.5-0.2-0.9-0.3-1.3c0.8-2.5,4.1-4.8,5.8-6.5
	c3.6-3.5,2.3-6.3,2.3-6.3c2.3-0.3,4.3-1.9,5.3-4c0.3-1,0.5-2,0.4-3C37.8,12.5,29.7,17.5,23.1,24.3z"/>
<path class="st1" d="M16.5,32.6c-0.6,0.9-1.2,1.9-1.8,2.9c0.1,18.8,1,29.5-4.6,46c1.3,3.8,2.9,7.5,5,11h40.3
	c-10.6-24.3-8.8-35.2-8.8-59.9H16.5z M36.3,52.6L32,59.1h-3l-4-6.5C25,52.6,30.8,49.4,36.3,52.6L36.3,52.6z M24,73.9
	c0,0-5.6-3.4-5.6-9.8l7.8,0.5l1.5,2.6L24,73.9z M30.7,66.3c-1.5,0-2.7-1.2-2.7-2.7c0-1.5,1.2-2.7,2.7-2.7s2.7,1.2,2.7,2.7l0,0
	C33.4,65.1,32.2,66.3,30.7,66.3L30.7,66.3L30.7,66.3z M37.4,73.9l-3.5-7l1.5-2.6l7.6-0.1l0,0C43,64.2,42.9,70.7,37.4,73.9L37.4,73.9
	z"/>
<path class="st1" d="M105.2,104.5H93v-8.9h-7.2v8.9H73.5V88.6c-1.4,0-2.6-1.2-2.7-2.6l18.5-15.9l8,6.8v-4.2h5.3v8.7l5.2,4.6
	c0,1.5-1.2,2.6-2.6,2.6C105.2,88.6,105.2,104.5,105.2,104.5z"/>
<polygon class="st1" points="16.5,91.6 70.5,91.6 70.5,104.5 98.2,104.5 84,116.1 55.5,120.3 30.7,110.8 16.5,96.2 "/>
<path class="st2" d="M63.8,124.1C30.3,124.1,3.2,97,3.2,63.6S30.3,3,63.8,3s60.5,27.1,60.5,60.5l0,0C124.3,97,97.2,124.1,63.8,124.1
	z M63.8,11c-29,0-52.5,23.5-52.5,52.5S34.8,116,63.8,116s52.5-23.5,52.5-52.5C116.3,34.6,92.8,11.1,63.8,11z"/>
</svg>
