<?xml version="1.0" encoding="utf-8"?>
<!-- Generator: Adobe Illustrator 26.5.0, SVG Export Plug-In . SVG Version: 6.00 Build 0)  -->
<svg version="1.1" id="Calque_1" xmlns="http://www.w3.org/2000/svg" xmlns:xlink="http://www.w3.org/1999/xlink" x="0px" y="0px"
	 viewBox="0 0 127.6 127.6" style="enable-background:new 0 0 127.6 127.6;" xml:space="preserve">
<style type="text/css">
	.st0{fill:#FFFFFF;}
	.st1{fill:#000091;}
	.st2{fill-rule:evenodd;clip-rule:evenodd;fill:#000091;}
	.st3{fill:#E1000F;}
</style>
<circle class="st0" cx="64.1" cy="63.9" r="56"/>
<polygon class="st1" points="18.5,96.3 109.1,96.3 97.8,108.5 79.7,118 57.9,120.4 43.8,116.6 31.6,109.8 21.5,101.8 "/>
<path class="st2" d="M108.6,95.3H98v-7.2h-5.4v7.2H81.9V82c-1.2,0-2.2-1-2.2-2.2l0,0l15.6-13.3l6.7,5.7v-3.5h4.4V76l4.4,3.8
	c0,1.2-1,2.2-2.3,2.2L108.6,95.3L108.6,95.3z"/>
<path class="st2" d="M79.6,61.4c-4.1-0.3-8.1,0.8-12.4,3.2l-1.8,1l-0.1-2.1c-0.3-5.2-2.6-9.4-7.2-13.1c0.8,6.6-0.9,14-4.1,18.8
	c-0.3,0.5-0.6,0.9-1,1.3c-0.7,0.8-1.4,1.5-2.3,2.2L48.8,74l-0.2-2.2c-0.5-3.3-1.9-6.4-4.2-8.8c0.4,4.4-1.1,7.6-2.8,10.9
	c-1.2,2.3-2.2,4.8-2.9,7.3c-1,3.9-0.1,8,2.4,11.2c0.8,1,1.7,1.9,2.7,2.6c2.3-7.2,6.9-13.7,15.2-19c0,4.2,0.6,8.2,3,11.8
	c2.1-0.1,4.1-0.9,5.7-2.3c2,3.1,3.4,6.4,4.3,10c3.5-2.5,5.7-5.9,5.7-9.6c0-2.4-0.2-4.9-0.6-7.3C76.5,73.4,76,69,79.6,61.4L79.6,61.4
	z"/>
<path class="st2" d="M47.4,53.8L53.7,64c2-5.2,2.4-10.8,1.1-16.2L54,44.5l2.8,1.9c6.3,4.1,9.9,9.1,10.7,15.1c0.8-0.4,1.6-0.7,2.4-1
	l-7.3-11.8H68L56,29.2l-9,14.5l6.2,10.1L47.4,53.8z"/>
<path class="st2" d="M36.3,80.5c0.7-2.7,1.7-5.4,3.1-7.9c2-4,3.5-7.1,1.9-12.5l-0.9-2.9l2.7,1.4c3.8,2,6.6,6.5,7.7,10.5
	c0.6-0.7,1.2-1.5,1.7-2.4l-9.6-15.6h5.9L35.2,29.3L21.7,51.2h6l-12,19.4H22l-9.2,14.9h19.1v8.8h6.7v-1.1
	C36,89.4,35.2,84.8,36.3,80.5z"/>
<path class="st3" d="M63.8,122.4c-32.4,0-58.6-26.2-58.6-58.6S31.4,5.2,63.8,5.2s58.6,26.2,58.6,58.6
	C122.4,96.1,96.1,122.4,63.8,122.4z M63.8,13.2c-28,0-50.6,22.7-50.6,50.6s22.7,50.6,50.6,50.6s50.6-22.7,50.6-50.6
	C114.4,35.8,91.7,13.2,63.8,13.2z"/>
</svg>
