<?xml version="1.0" encoding="utf-8"?>
<!-- Generator: Adobe Illustrator 26.5.0, SVG Export Plug-In . SVG Version: 6.00 Build 0)  -->
<svg version="1.1" id="Calque_1" xmlns="http://www.w3.org/2000/svg" xmlns:xlink="http://www.w3.org/1999/xlink" x="0px" y="0px"
	 viewBox="0 0 127.6 127.6" style="enable-background:new 0 0 127.6 127.6;" xml:space="preserve">
<style type="text/css">
	.st0{fill:#FFFFFF;}
	.st1{fill-rule:evenodd;clip-rule:evenodd;fill:#000091;}
	.st2{fill:#E1000F;}
</style>
<circle class="st0" cx="64.1" cy="63.9" r="56"/>
<polygon class="st1" points="23.8,62.6 56.5,59.7 72.2,61 74.5,71.2 74.5,88 83.2,116.9 67,120.3 45.7,119.4 30.2,111 18.6,97.7 
	9.1,80.5 7.2,67 7.2,63.8 "/>
<polygon class="st1" points="83.2,116.9 77,87.8 79.4,73.1 78.6,65.8 85.3,65.8 118.9,64.5 118.9,83.5 108.5,98.3 98.5,108.4 "/>
<path class="st1" d="M72.2,61.3l1.1-6.5l4-8.3l-0.6-8.8l1.9-5.6V21.4H72v5.2l-10-8.5L38.8,38c0,1.8,1.5,3.3,3.3,3.3v20h15.4V50.1
	h9.1v11.2H72.2z"/>
<path class="st1" d="M85.1,36.7l-1.9,5.6l0.6,8.8l-4,8.3l-1.2,6.5h9.9v-20c1.8,0,3.3-1.5,3.3-3.3l-6.6-5.7L85.1,36.7z"/>
<path class="st2" d="M63.8,124.3c-33.4,0-60.5-27.1-60.5-60.5s27-60.6,60.5-60.6s60.5,27.1,60.5,60.5l0,0
	C124.3,97.2,97.2,124.3,63.8,124.3z M63.8,11.2c-29,0-52.5,23.5-52.5,52.5s23.5,52.5,52.5,52.5s52.5-23.5,52.5-52.5
	C116.3,34.8,92.8,11.3,63.8,11.2z"/>
</svg>
