<?xml version="1.0" encoding="utf-8"?>
<!-- Generator: Adobe Illustrator 26.5.0, SVG Export Plug-In . SVG Version: 6.00 Build 0)  -->
<svg version="1.1" id="Calque_1" xmlns="http://www.w3.org/2000/svg" xmlns:xlink="http://www.w3.org/1999/xlink" x="0px" y="0px"
	 viewBox="0 0 127.6 127.6" style="enable-background:new 0 0 127.6 127.6;" xml:space="preserve">
<style type="text/css">
	.st0{fill:#FFFFFF;}
	.st1{fill-rule:evenodd;clip-rule:evenodd;fill:#000091;}
	.st2{fill:#E1000F;}
</style>
<circle class="st0" cx="64.1" cy="63.9" r="56"/>
<path class="st1" d="M106.3,77.9H95.8v-7.7h-6.2v7.7H79V64.2c-1.2,0-2.3-1-2.3-2.2l16-13.7l6.8,5.9v-3.6h4.6v7.5l4.5,3.9
	c0,1.3-1,2.3-2.3,2.3C106.3,64.3,106.3,77.9,106.3,77.9z"/>
<polygon class="st1" points="104.6,103.5 55.3,100.8 55.3,77.9 119.6,77.9 "/>
<path class="st1" d="M87.3,99.4L87.3,99.4C74.2,99.4,64,88.7,64,75V36.4c0-1.1-0.9-2-2-2H41.6c-1.1,0-2,0.9-2,2
	c0,3.4-2.7,6.1-6.1,6.1s-6.1-2.7-6.1-6.1c0-1.1-0.9-2-2-2s-2,0.9-2,2c0,3.4-2.7,6.1-6.1,6.1c-1.9,0-3.7-0.9-4.8-2.3
	c-0.6,1.3-1.2,2.7-1.7,4.1c4.3,3.6,10.7,3,14.3-1.3c0.1-0.1,0.2-0.3,0.3-0.4c1.9,2.6,4.9,4.1,8.1,4.1c2.2,0,4.4-0.7,6.1-2.1v8.2
	c0,3.4-2.7,6.1-6.1,6.1s-6.1-2.7-6.1-6.1c0-1.1-0.9-2-2-2s-2,0.9-2,2c0,3.4-2.7,6.1-6.1,6.1s-6.1-2.7-6.1-6.1c0-1.1-0.9-2-2-2
	c-0.1,0-0.2,0-0.3,0c-0.8,3.2-1.3,6.6-1.4,9.9C8,60,8.6,59.4,9.1,58.8c3.4,4.5,9.7,5.4,14.2,2c0.8-0.6,1.5-1.3,2-2
	c1.9,2.6,4.9,4.1,8.1,4.1c2.2,0,4.4-0.7,6.1-2.1V69c0,3.4-2.7,6.1-6.1,6.1s-6.1-2.7-6.1-6.1c0-1.1-0.9-2-2-2s-2,0.9-2,2
	c0,3.4-2.7,6.1-6.1,6.1s-6.1-2.7-6.1-6.1c0-1.1-0.9-2-2-2c-0.7,0-1.3,0.3-1.7,0.9c0.2,2.7,0.5,5.3,1.1,7.9c0.2-0.2,0.4-0.4,0.6-0.7
	c3.4,4.5,9.7,5.4,14.2,2c0.8-0.6,1.5-1.3,2-2c1.9,2.6,4.9,4.1,8.1,4.1c2.2,0,4.3-0.8,6-2.1v6.2H10.6c2.8,7.6,7.2,14.6,12.9,20.3
	h63.8c1.1,0,2-0.9,2-2S88.5,99.4,87.3,99.4L87.3,99.4z"/>
<polygon class="st1" points="101.3,106 109.6,99.6 18.7,99.6 25,104.9 38.8,114.5 54.8,118.6 67.3,120.3 80.5,117.8 93.2,114 
	100.8,109.3 "/>
<path class="st2" d="M63.8,124.3c-33.4,0-60.5-27.1-60.5-60.5s27-60.6,60.5-60.6s60.5,27.1,60.5,60.5l0,0
	C124.3,97.2,97.2,124.3,63.8,124.3z M63.8,11.2c-29,0-52.5,23.5-52.5,52.5s23.5,52.5,52.5,52.5s52.5-23.5,52.5-52.5
	C116.3,34.8,92.8,11.3,63.8,11.2z"/>
</svg>
