<?xml version="1.0" encoding="utf-8"?>
<!-- Generator: Adobe Illustrator 26.5.0, SVG Export Plug-In . SVG Version: 6.00 Build 0)  -->
<svg version="1.1" id="Calque_1" xmlns="http://www.w3.org/2000/svg" xmlns:xlink="http://www.w3.org/1999/xlink" x="0px" y="0px"
	 viewBox="0 0 127.6 127.6" style="enable-background:new 0 0 127.6 127.6;" xml:space="preserve">
<style type="text/css">
	.st0{fill:#FFFFFF;}
	.st1{fill-rule:evenodd;clip-rule:evenodd;fill:#000091;}
	.st2{fill-rule:evenodd;clip-rule:evenodd;fill:#FFFFFF;}
	.st3{fill:#E1000F;}
</style>
<circle class="st0" cx="64.1" cy="63.9" r="56"/>
<path class="st1" d="M84.5,40.5V26.9h-8.3v6.5L63.8,22.8l-29,24.9c0,2.3,1.8,4.1,4.1,4.1v23.5l6.4-4.3l9.8,5.7h3v-14h11.4v14H72
	L82.2,71l6.4,4.4V51.8c2.3,0,4.2-1.9,4.2-4.1l0,0L84.5,40.5z"/>
<path class="st2" d="M119.3,64.5c-10.5,9.6-26.5,9.6-37.1,0.1c-10.5,9.4-26.4,9.4-36.9,0c-10.5,9.5-26.5,9.4-37-0.1l7.6,24.9
	L29.1,104l25,11.8H77l15-7.3L105.1,98l9.6-13.9l4.6-13.8L119.3,64.5z"/>
<path class="st1" d="M119.3,68.9c-10.5,9.6-26.5,9.6-37.1,0.1c-10.5,9.4-26.4,9.4-36.9,0c-10.5,9.5-26.5,9.4-37-0.1l7.6,24.9
	l13.2,14.6l25,11.8H77l15-7.3l13.2-10.5l9.6-13.9l4.6-13.8L119.3,68.9z"/>
<path class="st2" d="M109.9,93.7c-9.5,3.4-20.2,1.3-27.7-5.5c-10.5,9.4-26.4,9.4-36.9,0c-7.8,7-18.9,9-28.7,5.1l8.9,9.9l17.3,10
	l14.1,4l16.8-0.1l8.1-0.7l10.1-6.6l6.7-3.6l5.4-4.2l3.7-3.5L109.9,93.7z"/>
<path class="st1" d="M109.9,98.6c-9.5,3.4-20.2,1.3-27.7-5.5c-10.5,9.4-26.4,9.4-36.9,0c-7.8,7-18.9,9-28.7,5.1l8.9,9.9l17.3,10
	l14.1,4l16.8-0.1l8.1-0.7l10.1-6.6l6.7-3.6l5.4-4.2l3.7-3.5L109.9,98.6z"/>
<path class="st3" d="M63.8,124.3c-33.4,0-60.5-27.1-60.5-60.5s27-60.6,60.5-60.6s60.5,27.1,60.5,60.5l0,0
	C124.3,97.2,97.2,124.3,63.8,124.3z M63.8,11.2c-29,0-52.5,23.5-52.5,52.5s23.5,52.5,52.5,52.5s52.5-23.5,52.5-52.5
	C116.3,34.8,92.8,11.3,63.8,11.2z"/>
</svg>
