<?xml version="1.0" encoding="utf-8"?>
<!-- Generator: Adobe Illustrator 26.5.0, SVG Export Plug-In . SVG Version: 6.00 Build 0)  -->
<svg version="1.1" id="Calque_1" xmlns="http://www.w3.org/2000/svg" xmlns:xlink="http://www.w3.org/1999/xlink" x="0px" y="0px"
	 viewBox="0 0 127.6 127.6" style="enable-background:new 0 0 127.6 127.6;" xml:space="preserve">
<style type="text/css">
	.st0{fill:#FFFFFF;}
	.st1{fill-rule:evenodd;clip-rule:evenodd;fill:#000091;}
	.st2{fill-rule:evenodd;clip-rule:evenodd;fill:#FFFFFF;}
	.st3{fill:#E1000F;}
</style>
<circle class="st0" cx="64.1" cy="63.9" r="56"/>
<path class="st1" d="M69,83.9l11.7-10C67.2,59.8,61.8,40.1,61.8,40.1l0,0c-1.7-0.5-3.4-0.8-5.2-1c-1.3,0-2.5,0.2-3.7,0.6l1,9.4
	L48,56.9l2.7,9.3l-7.3-8.3l4.6-8.8l-4.3-9.5c-1-0.4-2.1-0.6-3.2-0.5c-1.9,0.2-3.8,0.5-5.6,1c0,0-6,26.1-25.3,39.7
	c2.8,9.6,6.2,18.2,13.2,19.9h47.8v-8.8c-1.6-1-2.6-2.8-2.7-4.8v-1.4L69,83.9z"/>
<polygon class="st2" points="109.2,97.1 99.4,97.1 97.2,102.1 84.8,102.1 81.8,97.1 20.4,97.1 27.7,107.7 84,115.8 "/>
<polygon class="st1" points="107.2,99.7 97.5,99.7 95.2,104.7 82.9,104.7 79.8,99.7 18.5,99.7 50.5,117.1 82.1,118.4 "/>
<path class="st1" d="M105.2,104.7H93v-8.9h-7.2v8.9H73.5V88.8c-1.5,0-2.7-1.2-2.7-2.7l0,0l18.5-15.9l8,6.8v-4.2h5.3v8.7l5.3,4.5
	c0,1.5-1.2,2.6-2.6,2.7L105.2,104.7z"/>
<path class="st1" d="M63.8,7.2c-15.6,0-30.4,6.4-41.1,17.8c1.8,0.5,3.7,0.8,5.5,0.8c1,0,1.9-0.1,2.9-0.2c2.3,2.5,5.6,3.8,9,3.8h0.3
	c1.1,2,2.1,4.2,2.8,6.4l3.3,2.2l0.3-7.2l1.8,9L51,33l-0.1,5l3.2-2.8c0.8-2.1,1.8-4.2,3.1-6c0.8,0.1,1.7,0.1,2.6,0.1
	c7.5,0,13.9-3,16-7.2c5.4-2,9.7-5.4,11.9-9.6C80.2,9,72,7.2,63.8,7.2z"/>
<path class="st3" d="M63.8,124.3c-33.4,0-60.5-27.1-60.5-60.5s27-60.6,60.5-60.6s60.5,27.1,60.5,60.5l0,0
	C124.3,97.2,97.2,124.3,63.8,124.3z M63.8,11.2c-29,0-52.5,23.5-52.5,52.5s23.5,52.5,52.5,52.5s52.5-23.5,52.5-52.5
	C116.3,34.8,92.8,11.3,63.8,11.2z"/>
</svg>
