<?xml version="1.0" encoding="UTF-8"?>
<svg xmlns="http://www.w3.org/2000/svg" version="1.1" xmlns:xlink="http://www.w3.org/1999/xlink" viewBox="45 45 220 220">
  <defs>
    <style>
      .cls-1 {
        fill: #d89737;
      }

      .cls-2 {
        stroke: #d89737;
      }

      .cls-2, .cls-3, .cls-4, .cls-5, .cls-6, .cls-7, .cls-8, .cls-9, .cls-10, .cls-11, .cls-12 {
        stroke-linecap: round;
        stroke-linejoin: round;
        stroke-width: 1.8px;
      }

      .cls-2, .cls-3, .cls-5, .cls-6, .cls-7, .cls-8, .cls-10, .cls-11 {
        fill: none;
      }

      .cls-3 {
        stroke: #313741;
      }

      .cls-4 {
        fill: #a6d7d6;
        stroke: #1e1f1d;
      }

      .cls-5 {
        stroke: #323c43;
      }

      .cls-6, .cls-9 {
        stroke: #31353f;
      }

      .cls-13 {
        fill: url(#Dégradé_sans_nom_190);
      }

      .cls-14 {
        fill: url(#Dégradé_sans_nom_3-3);
      }

      .cls-15 {
        fill: url(#Dégradé_sans_nom_3-2);
      }

      .cls-7 {
        stroke: #313942;
      }

      .cls-8 {
        stroke: #313640;
      }

      .cls-16 {
        fill: url(#Dégradé_sans_nom_3);
      }

      .cls-9 {
        fill: #31353f;
      }

      .cls-10 {
        stroke: #323a42;
      }

      .cls-17 {
        fill: url(#Dégradé_sans_nom_519-2);
      }

      .cls-18 {
        fill: url(#Dégradé_sans_nom_519-3);
      }

      .cls-19 {
        fill: url(#Dégradé_sans_nom_519);
      }

      .cls-11, .cls-12 {
        stroke: #323d44;
      }

      .cls-12 {
        fill: #323d44;
      }

      .cls-20 {
        fill: url(#Dégradé_sans_nom_338);
      }

      .cls-21 {
        fill: url(#Dégradé_sans_nom_519-4);
      }
    </style>
    <linearGradient id="Dégradé_sans_nom_519" data-name="Dégradé sans nom 519" x1="176.88" y1="157.58" x2="207.19" y2="157.58" gradientUnits="userSpaceOnUse">
      <stop offset="0" stop-color="#333c3e"/>
      <stop offset=".61" stop-color="#384143"/>
      <stop offset="1" stop-color="#40494a"/>
    </linearGradient>
    <linearGradient id="Dégradé_sans_nom_519-2" data-name="Dégradé sans nom 519" x1="109.04" y1="158.14" x2="109.04" y2="125.09" xlink:href="#Dégradé_sans_nom_519"/>
    <linearGradient id="Dégradé_sans_nom_519-3" data-name="Dégradé sans nom 519" x1="109.04" y1="204.06" x2="109.04" y2="171.01" xlink:href="#Dégradé_sans_nom_519"/>
    <linearGradient id="Dégradé_sans_nom_190" data-name="Dégradé sans nom 190" x1="112.36" y1="172" x2="181.98" y2="172" gradientTransform="translate(319.17 24.83) rotate(90)" gradientUnits="userSpaceOnUse">
      <stop offset="0" stop-color="#40494a"/>
      <stop offset=".39" stop-color="#384143"/>
      <stop offset="1" stop-color="#333c3e"/>
    </linearGradient>
    <linearGradient id="Dégradé_sans_nom_519-4" data-name="Dégradé sans nom 519" x1="118.26" y1="172.16" x2="176.09" y2="172.16" gradientTransform="translate(319.33 24.99) rotate(90)" xlink:href="#Dégradé_sans_nom_519"/>
    <linearGradient id="Dégradé_sans_nom_338" data-name="Dégradé sans nom 338" x1="125.04" y1="147.97" x2="169.3" y2="147.97" gradientUnits="userSpaceOnUse">
      <stop offset="0" stop-color="#6a6b6b"/>
      <stop offset=".04" stop-color="#686969"/>
      <stop offset=".59" stop-color="#585858"/>
      <stop offset="1" stop-color="#535353"/>
    </linearGradient>
    <radialGradient id="Dégradé_sans_nom_3" data-name="Dégradé sans nom 3" cx="183.12" cy="100.49" fx="183.12" fy="100.49" r="41.27" gradientUnits="userSpaceOnUse">
      <stop offset="0" stop-color="#323d44"/>
      <stop offset="0" stop-color="#59bccb"/>
      <stop offset="1" stop-color="#31708f"/>
    </radialGradient>
    <radialGradient id="Dégradé_sans_nom_3-2" data-name="Dégradé sans nom 3" r="41.27" xlink:href="#Dégradé_sans_nom_3"/>
    <radialGradient id="Dégradé_sans_nom_3-3" data-name="Dégradé sans nom 3" cy="100.49" fy="100.49" r="41.27" xlink:href="#Dégradé_sans_nom_3"/>
  </defs>
  <!-- Generator: Adobe Illustrator 28.6.0, SVG Export Plug-In . SVG Version: 1.2.0 Build 709)  -->
  <g>
    <g id="Calque_1">
      <g>
        <path class="cls-19" d="M176.88,127.26h0v60.64h0c16.74,0,30.32-13.57,30.32-30.32h0c0-16.74-13.57-30.32-30.32-30.32ZM181.98,182.28v-49.39c11.47,2.37,20.11,12.54,20.11,24.7s-8.65,22.33-20.11,24.7Z"/>
        <line class="cls-11" x1="121.3" y1="116.58" x2="143.99" y2="42.46"/>
        <circle class="cls-12" cx="144.61" cy="41.87" r="1.68"/>
        <g>
          <rect class="cls-17" x="105.72" y="125.09" width="6.65" height="33.05"/>
          <g>
            <line class="cls-11" x1="107.52" y1="127.72" x2="114.16" y2="127.72"/>
            <line class="cls-11" x1="107.52" y1="134.01" x2="114.16" y2="134.01"/>
            <line class="cls-11" x1="107.52" y1="141.5" x2="114.16" y2="141.5"/>
            <line class="cls-11" x1="107.52" y1="148.99" x2="114.16" y2="148.99"/>
            <line class="cls-11" x1="107.52" y1="155.27" x2="114.16" y2="155.27"/>
          </g>
        </g>
        <g>
          <rect class="cls-18" x="105.72" y="171.01" width="6.65" height="33.05"/>
          <g>
            <line class="cls-11" x1="107.52" y1="173.64" x2="114.16" y2="173.64"/>
            <line class="cls-11" x1="107.52" y1="179.93" x2="114.16" y2="179.93"/>
            <line class="cls-11" x1="107.52" y1="187.42" x2="114.16" y2="187.42"/>
            <line class="cls-11" x1="107.52" y1="194.9" x2="114.16" y2="194.9"/>
            <line class="cls-11" x1="107.52" y1="201.19" x2="114.16" y2="201.19"/>
          </g>
        </g>
        <rect class="cls-13" x="90.49" y="137.19" width="113.37" height="69.61" transform="translate(-24.83 319.17) rotate(-90)"/>
        <rect class="cls-21" x="96.95" y="143.25" width="100.45" height="57.83" transform="translate(-24.99 319.33) rotate(-90)"/>
        <g>
          <rect class="cls-20" x="125.04" y="126.87" width="44.26" height="42.2"/>
          <line class="cls-11" x1="169.51" y1="126.87" x2="169.51" y2="169.06"/>
          <g>
            <line class="cls-11" x1="125.04" y1="131.85" x2="169.3" y2="131.85"/>
            <line class="cls-5" x1="125.04" y1="137.22" x2="169.3" y2="137.22"/>
            <line class="cls-10" x1="125.04" y1="142.59" x2="169.3" y2="142.59"/>
            <line class="cls-7" x1="125.04" y1="147.97" x2="169.3" y2="147.97"/>
            <line class="cls-3" x1="125.04" y1="153.34" x2="169.3" y2="153.34"/>
            <line class="cls-8" x1="125.04" y1="158.71" x2="169.3" y2="158.71"/>
            <line class="cls-6" x1="125.04" y1="164.09" x2="169.3" y2="164.09"/>
          </g>
        </g>
        <rect class="cls-4" x="125.15" y="178.02" width="44.15" height="13.92"/>
        <rect class="cls-6" x="125.15" y="178.02" width="44.15" height="13.92"/>
        <path class="cls-9" d="M133.73,183h-3.86M139.3,183h-3.41M162.03,183h-14.8M137.59,186.97h-7.72M154.75,186.97h-7.52M162.03,186.97h-4.28"/>
        <line class="cls-6" x1="143.16" y1="190.79" x2="143.16" y2="178.02"/>
        <line class="cls-6" x1="168.1" y1="179.1" x2="168.1" y2="190.78"/>
        <g>
          <circle class="cls-1" cx="131.63" cy="208.17" r="2.4"/>
          <circle class="cls-9" cx="141.89" cy="208.17" r="2.4"/>
          <line class="cls-2" x1="131.63" y1="202.87" x2="131.63" y2="198.11"/>
          <line class="cls-2" x1="131.63" y1="213.48" x2="131.63" y2="218.24"/>
          <line class="cls-2" x1="136.93" y1="208.17" x2="141.7" y2="208.17"/>
          <line class="cls-2" x1="126.33" y1="208.17" x2="121.56" y2="208.17"/>
          <line class="cls-2" x1="135.38" y1="211.92" x2="138.75" y2="215.29"/>
          <line class="cls-2" x1="127.88" y1="204.43" x2="124.51" y2="201.06"/>
          <line class="cls-2" x1="127.88" y1="211.92" x2="124.51" y2="215.29"/>
          <line class="cls-2" x1="135.38" y1="204.43" x2="138.75" y2="201.06"/>
        </g>
      </g>
      <g>
        <path class="cls-16" d="M240.28,129.62h-5.31c0-39.19-31.89-71.08-71.08-71.08v-5.31c42.12,0,76.39,34.27,76.39,76.39Z"/>
        <path class="cls-15" d="M219.3,129.62h-3.85c0-28.42-23.12-51.55-51.55-51.55v-3.85c30.55,0,55.4,24.85,55.4,55.4Z"/>
        <path class="cls-14" d="M201.15,129.62h-2.59c0-19.11-15.55-34.67-34.67-34.67v-2.59c20.54,0,37.25,16.71,37.25,37.25Z"/>
      </g>
    </g>
  </g>
</svg>