<svg xmlns="http://www.w3.org/2000/svg" viewBox="0 0 490.79 376.9"><defs><style>.cls-1{fill:#ff4e36;}.cls-2{fill:#000091;}.cls-3{fill:#fff;}.cls-4{fill:#e1000f;}.cls-5{opacity:0.3;}</style></defs><g id="Calque_2" data-name="Calque 2"><g id="Calque_1-2" data-name="Calque 1"><path class="cls-1" d="M202.74,107.63c-.63-.26-1.22-.56-1.82-.88s-1.15-.68-1.71-1-1.08-.79-1.61-1.21-1-.88-1.52-1.34a28.5,28.5,0,0,1-5-6.44,32.62,32.62,0,0,1,0-32,28.24,28.24,0,0,1,5-6.44c.5-.46,1-.91,1.52-1.34s1.07-.82,1.62-1.21,1.14-.72,1.71-1.06,1.2-.61,1.82-.87c-.24.65-.51,1.24-.76,1.84s-.48,1.19-.73,1.77-.46,1.16-.68,1.74-.43,1.14-.63,1.71a68.58,68.58,0,0,0-2,6.71,56.49,56.49,0,0,0-1.6,13.14,55.86,55.86,0,0,0,1.59,13.13,65.46,65.46,0,0,0,2,6.72c.19.57.43,1.12.63,1.71s.47,1.14.68,1.74.49,1.16.74,1.77S202.5,107,202.74,107.63Z"/><path class="cls-1" d="M256.55,53.81c.62.26,1.22.57,1.81.88s1.15.68,1.71,1.06,1.08.79,1.62,1.2,1,.88,1.52,1.34a28.74,28.74,0,0,1,5,6.44,32.59,32.59,0,0,1,0,32,28.33,28.33,0,0,1-5,6.45c-.5.46-1,.9-1.52,1.34s-1.07.82-1.62,1.2-1.13.72-1.7,1.06-1.2.61-1.82.87c.23-.64.5-1.24.75-1.83s.49-1.2.73-1.77.47-1.17.68-1.74.44-1.15.63-1.72a65.19,65.19,0,0,0,2-6.71,54.88,54.88,0,0,0,0-26.27,67.77,67.77,0,0,0-2-6.71c-.2-.57-.43-1.13-.63-1.72s-.47-1.14-.69-1.73-.49-1.17-.73-1.77S256.79,54.46,256.55,53.81Z"/><path class="cls-1" d="M175.83,134.54c-1.05-.71-2.08-1.47-3.1-2.23s-2-1.62-2.93-2.48-1.86-1.76-2.77-2.67c-.44-.47-.87-1-1.3-1.42s-.88-.95-1.29-1.45a64.35,64.35,0,0,1-8.55-13,69.39,69.39,0,0,1,0-61.09,64.66,64.66,0,0,1,8.54-13c.85-1,1.73-1.92,2.6-2.86s1.83-1.8,2.77-2.68,2-1.66,2.92-2.47,2.06-1.51,3.11-2.22c-.67,1.09-1.36,2.14-2,3.18l-1.95,3.19c-.6,1.09-1.24,2.14-1.83,3.21s-1.17,2.15-1.71,3.24A94.74,94.74,0,0,0,162.76,53a87.78,87.78,0,0,0,0,55.4,94.8,94.8,0,0,0,5.54,13.29c.54,1.08,1.14,2.14,1.7,3.24s1.24,2.12,1.84,3.21l1.95,3.18C174.46,132.4,175.16,133.44,175.83,134.54Z"/><path class="cls-1" d="M283.46,26.91c1.05.71,2.07,1.46,3.1,2.23s2,1.62,2.93,2.47,1.85,1.76,2.76,2.68c.44.46.87.94,1.31,1.42s.88.94,1.29,1.44a65,65,0,0,1,8.54,13,69.45,69.45,0,0,1,0,61.1,64.91,64.91,0,0,1-8.55,13c-.85,1-1.72,1.92-2.59,2.86s-1.84,1.81-2.77,2.68-1.95,1.66-2.93,2.47-2.05,1.52-3.1,2.23c.66-1.1,1.36-2.14,2-3.19l1.95-3.19c.6-1.09,1.24-2.13,1.83-3.21s1.16-2.15,1.7-3.24a94.25,94.25,0,0,0,5.53-13.29,87.75,87.75,0,0,0,0-55.39A94.25,94.25,0,0,0,291,39.73c-.55-1.09-1.15-2.15-1.71-3.24s-1.23-2.12-1.83-3.21l-2-3.19C284.82,29.05,284.12,28,283.46,26.91Z"/><path class="cls-1" d="M148.92,161.44c-1.48-1.16-2.94-2.36-4.39-3.58s-2.79-2.56-4.15-3.89-2.63-2.74-3.91-4.15c-.62-.72-1.23-1.45-1.85-2.18s-1.24-1.45-1.82-2.21a101.21,101.21,0,0,1-12.06-19.59l-1.18-2.65c-.39-.89-.81-1.76-1.14-2.67s-.69-1.81-1-2.71-.71-1.81-1-2.74l-.89-2.76c-.29-.93-.61-1.85-.83-2.79L114,106.7l-.36-1.41-.18-.71-.14-.71c-.19-1-.4-1.9-.58-2.86l-.27-1.43-.14-.71c0-.24-.07-.48-.11-.72l-.41-2.89-.2-1.44c-.07-.49-.15-1-.18-1.45-.17-1.94-.33-3.87-.46-5.81l-.18-5.83.17-5.83c.13-1.94.3-3.88.46-5.82,0-.48.11-1,.18-1.44l.21-1.45.41-2.88.1-.72.14-.72.28-1.43c.18-.95.37-1.91.57-2.86l.14-.71.18-.71.36-1.41.72-2.82c.12-.47.24-.94.39-1.4l.44-1.39.89-2.76c.28-.93.65-1.83,1-2.74l1-2.71c.33-.91.76-1.78,1.14-2.67l1.18-2.65A101.29,101.29,0,0,1,132.78,16c.28-.38.6-.74.91-1.11l.92-1.1c.61-.72,1.22-1.46,1.85-2.18,1.28-1.41,2.6-2.78,3.91-4.15s2.77-2.6,4.15-3.88,2.91-2.42,4.39-3.58c-1.09,1.54-2.22,3-3.33,4.54l-3.17,4.6c-1,1.58-2,3.11-3,4.68s-1.89,3.17-2.78,4.77a131.3,131.3,0,0,0-9.05,19.87,124.77,124.77,0,0,0,0,84.52,131.35,131.35,0,0,0,9.06,19.87c.89,1.6,1.86,3.16,2.78,4.76s2,3.11,3,4.69l3.18,4.6C146.69,158.41,147.83,159.9,148.92,161.44Z"/><path class="cls-1" d="M310.36,0c1.48,1.16,2.94,2.36,4.39,3.58s2.79,2.56,4.15,3.89,2.63,2.74,3.92,4.15c.62.72,1.23,1.45,1.84,2.18l.92,1.1c.31.37.63.73.91,1.11a101.78,101.78,0,0,1,12.06,19.6l1.18,2.65c.38.88.81,1.76,1.14,2.66s.69,1.81,1,2.72.7,1.8,1,2.73l.89,2.77c.29.93.61,1.84.83,2.79l.72,2.82.36,1.41.18.71.15.71c.19,1,.39,1.9.57,2.85l.28,1.44.14.71c0,.24.07.48.1.72l.41,2.89.21,1.44c.06.48.14,1,.17,1.45.17,1.93.34,3.87.47,5.81l.17,5.83-.17,5.83c-.13,1.94-.3,3.88-.46,5.82,0,.48-.11,1-.18,1.44l-.2,1.45-.41,2.88c0,.24-.07.48-.11.72l-.14.72-.27,1.43c-.18.95-.38,1.91-.57,2.86l-.15.71-.18.71-.36,1.41-.72,2.82c-.12.47-.24.94-.39,1.4l-.44,1.39-.89,2.76c-.27.93-.65,1.83-1,2.74l-1,2.71c-.33.91-.75,1.78-1.14,2.67l-1.18,2.65a101.29,101.29,0,0,1-12.06,19.6c-.28.38-.6.74-.91,1.11l-.92,1.1c-.62.73-1.22,1.46-1.85,2.18-1.28,1.41-2.6,2.78-3.91,4.15s-2.77,2.6-4.15,3.89-2.92,2.41-4.4,3.57c1.1-1.54,2.23-3,3.34-4.54l3.17-4.6c1-1.58,2-3.11,3-4.68s1.89-3.17,2.78-4.77A131.19,131.19,0,0,0,331.68,123a124.74,124.74,0,0,0,0-84.54,132.23,132.23,0,0,0-9.06-19.86c-.89-1.61-1.87-3.16-2.79-4.77s-2-3.1-3-4.68l-3.17-4.6C312.59,3,311.46,1.54,310.36,0Z"/><path class="cls-2" d="M288.6,282.56V188.45h15.93v94.11Z"/><path class="cls-2" d="M319.17,250.94a38.67,38.67,0,0,1,3.74-17.12,29.56,29.56,0,0,1,11.21-12.35,32.52,32.52,0,0,1,17.52-4.65q13,0,21.08,7.93t8,20.43a39.94,39.94,0,0,1-1,9H335.39q.74,7.69,5.82,12t13.24,4.33a21.45,21.45,0,0,0,9.25-2,17.71,17.71,0,0,0,6.74-5.42l11.39,8.94a30.66,30.66,0,0,1-11.63,9.53,36.48,36.48,0,0,1-16,3.44,39.34,39.34,0,0,1-14.93-2.73,30.23,30.23,0,0,1-11.07-7.41,33.18,33.18,0,0,1-6.7-10.84A36.52,36.52,0,0,1,319.17,250.94Zm17.22-8.76h28.43a10.51,10.51,0,0,0-3.74-7.68q-3.56-3.17-9.56-3.16Q339.52,231.34,336.39,242.18Z"/><path class="cls-2" d="M396.19,282.56V219.33h15.93v6.22q7.29-7.5,16.66-7.51a18.23,18.23,0,0,1,5.52.92v16.61a29.31,29.31,0,0,0-7-.86,17.2,17.2,0,0,0-9.22,2.39,17.69,17.69,0,0,0-6,5.77v39.69Z"/><path class="cls-2" d="M443.36,233.85V219.33h11.89V203.52h15.93v15.81h19.48v14.52H471.18v25.61q0,9.81,10.11,9.8a26.14,26.14,0,0,0,9.5-1.41v14q-4.37,2-12.2,2-11.7,0-17.52-6.28t-5.82-18V233.85Z"/><path class="cls-2" d="M0,285.07V194.44H52.84V210H18.39v21.24H47.66v15.55H18.39v38.3Z"/><path class="cls-2" d="M70.28,285.07V194.44H98q15,0,23.6,7.22t8.63,19.76a26,26,0,0,1-3.76,14.11,25.29,25.29,0,0,1-10.71,9.36l28.44,40.18h-22L98.09,248.35H88.68v36.72Zm18.4-52.27H99q5.82,0,9-3t3.22-8.61a10.63,10.63,0,0,0-3.22-8.2q-3.22-3-9-3H88.68Z"/><path class="cls-2" d="M141.58,260V244.43h34.95V260Z"/><path class="cls-2" d="M230.86,64.79c-.18-7.11-.43-14.21-.89-21.33l-2,.09c0,14.14-.49,28.32-1.27,42.45s-1.89,28.24-3.33,42.31-3.19,28.08-5.32,42-4.68,27.82-7.62,41.59a578.71,578.71,0,0,1-23.53,80.71c-4.94,13.09-10.42,26-16.58,38.46-3.07,6.24-6.32,12.4-9.76,18.4-1.72,3-3.48,6-5.31,8.88l-.1.17c-.88,1.39-1.77,2.78-2.67,4.13-.47.71-.95,1.41-1.42,2.09l-.71,1-.35.48-.31.42L161.85,375l.77-1.16.84-1.22c.14-.21.29-.42.44-.62.28-.43.56-.85.83-1.28,1-1.55,2-3.11,2.92-4.68,1.9-3.13,3.71-6.29,5.47-9.47,3.5-6.37,6.76-12.83,9.84-19.36,2.51-5.31,4.88-10.66,7.15-16.06q5-11.83,9.28-23.91Q203,287,206.17,276.74c.52-1.72,1.06-3.43,1.57-5.15l1.5-5.17c1-3.46,1.87-6.94,2.75-10.42,3.51-13.94,6.37-28,8.77-42.1s4.29-28.27,5.79-42.46,2.63-28.41,3.37-42.63,1.12-28.46,1.17-42.69Q231.12,75.46,230.86,64.79Z"/><path class="cls-2" d="M285.07,349.11q-7.14-14.07-13.25-28.57c-.8-1.89-1.58-3.78-2.36-5.68a87.77,87.77,0,0,0-8.69-4.31c-2.16-.92-4.37-1.76-6.63-2.48a69.84,69.84,0,0,0-6.88-1.88c-.59-.13-1.17-.26-1.76-.36s-1.17-.23-1.76-.33c-1.19-.18-2.37-.37-3.56-.49s-2.39-.23-3.58-.33l-1.8-.08c-.6,0-1.2,0-1.8,0s-1.18,0-1.81,0l-1.9.06-1.88.14c-.63,0-1.24.14-1.86.21a56,56,0,0,0-7.27,1.43A69.24,69.24,0,0,0,205,311.59a91.85,91.85,0,0,0-11.71,7.18c-1.07.76-2.13,1.55-3.17,2.35-2.27,5.4-4.64,10.75-7.15,16.06-3.08,6.53-6.34,13-9.84,19.36-1.76,3.18-3.57,6.34-5.47,9.47-1,1.57-1.91,3.13-2.92,4.68-.27.43-.55.85-.83,1.28.42-.61.85-1.22,1.28-1.82q1.75-2.44,3.6-4.84,3.67-4.79,7.63-9.34a157.67,157.67,0,0,1,16.86-16.84,106.34,106.34,0,0,1,9.26-7.06,75.08,75.08,0,0,1,9.79-5.6c.83-.4,1.67-.76,2.5-1.12s1.69-.67,2.53-1a46.4,46.4,0,0,1,5.08-1.49,38.79,38.79,0,0,1,5-.8c.42,0,.84-.09,1.25-.1l1.25,0h1.23c.41,0,.88,0,1.31.06a53.92,53.92,0,0,1,20.63,5.48A81.64,81.64,0,0,1,271.59,340c2.86,2.51,5.59,5.22,8.23,8q2,2.12,3.87,4.34t3.71,4.5c2.41,3.06,4.73,6.21,6.91,9.45l.83,1.24c-.89-1.51-1.76-3-2.62-4.54Q288.65,356.13,285.07,349.11Z"/><path d="M200.91,313.82c-2.65,1.54-5.18,3.2-7.63,4.95-1.07.76-2.13,1.55-3.17,2.35-2.27,5.4-4.64,10.75-7.15,16.06-3.08,6.53-6.34,13-9.84,19.36-1.76,3.18-3.57,6.34-5.47,9.47-1,1.57-1.91,3.13-2.92,4.68-.1.17-.22.34-.33.51h0l.75-1.06q1.75-2.44,3.6-4.84,3.67-4.79,7.63-9.34c3.41-3.92,7-7.7,10.69-11.26,1.27-2.55,2.52-5.1,3.73-7.68,2.51-5.3,4.88-10.66,7.15-16C199,318.6,200,316.21,200.91,313.82Z"/><path class="cls-3" d="M318,365.48l-.44-.77-.87-1.49c-.58-1-1.16-1.94-1.76-2.89q-1.43-2.28-2.94-4.49c.69,1.17,1.39,2.34,2.1,3.49s1.3,2.12,1.95,3.16l1,1.54.92,1.43L300.3,376l-.26-.49-.34-.59L299,373.7c-.48-.82-1-1.64-1.49-2.46q-1.15-1.83-2.36-3.64c.45.78.91,1.56,1.37,2.34.68,1.14,1.38,2.28,2.08,3.43.35.57.71,1.14,1.08,1.72l.56.87.61.94,17.65-10.54Z"/><path d="M294.31,366.36l.83,1.24c-.89-1.51-1.76-3-2.62-4.54q-3.87-6.93-7.45-13.95-7.14-14.07-13.25-28.57c-.8-1.89-1.58-3.78-2.36-5.68a87.77,87.77,0,0,0-8.69-4.31l-.74-.31c.61,1.54,1.22,3.09,1.84,4.62.78,1.9,1.56,3.79,2.36,5.68q4.65,11,9.89,21.8c1.95,1.84,3.85,3.76,5.7,5.73q2,2.12,3.87,4.34t3.71,4.5C289.81,360,292.13,363.12,294.31,366.36Z"/><path class="cls-4" d="M317,364l-1-1.54c-.65-1-1.31-2.09-1.95-3.16s-1.41-2.32-2.1-3.49c-.58-1-1.15-2-1.72-2.94q-3.79-6.5-7.37-13.15c-2.41-4.42-4.73-8.89-7-13.39s-4.49-9-6.65-13.61a575.86,575.86,0,0,1-23-56.17q-5-14.35-9.26-29c-1.42-4.88-2.73-9.79-4-14.71S250.47,203,249.34,198c-2.29-9.94-4.24-20-6-30s-3.06-20.26-4.26-30.5l-2,0c-.3,5.16-.51,10.35-.54,15.54s0,10.38.19,15.57.47,10.39.9,15.58l.14,2,.18,1.94.35,3.89.42,3.88.21,2,.23,1.94.46,3.88.54,3.87c.17,1.3.36,2.59.55,3.88l.59,3.86c.42,2.58.83,5.16,1.3,7.72s.95,5.14,1.44,7.7q3,15.38,7.16,30.53a468.14,468.14,0,0,0,18.18,53.64c.78,1.9,1.56,3.79,2.36,5.68q6.12,14.49,13.25,28.57,3.57,7,7.45,13.95c.86,1.51,1.73,3,2.62,4.54q1.2,1.81,2.36,3.64c.51.82,1,1.64,1.49,2.46l.71,1.22.34.59.26.49L318,365.46Z"/><path d="M205.55,241.24c3.4-.19,6.77-.52,10.12-.94q2.87-13.16,5.09-26.4c.08-.52.17-1,.25-1.56l-2-.22c-2.8-.34-5.58-.75-8.32-1.25-.07.35-.14.7-.22,1.06q-3.16,14.83-7.11,29.43Z"/><path class="cls-5" d="M254.61,231.83l1.2-.47,2.05-.8c-.29-1-.59-2-.88-3-1.42-4.88-2.73-9.79-4-14.71l-.09-.33-1,.1-2.44.23q-4.19.33-8.35.43l.3,2c.42,2.58.83,5.16,1.3,7.72s.95,5.14,1.44,7.7c.28,1.44.58,2.88.87,4.32,2-.59,4-1.22,6-1.88l2.43-.87Z"/><path class="cls-4" d="M200.79,214.34h0l.11,0,.23.08.51.15,1.07.29c.73.19,1.48.37,2.23.54,1.51.35,3,.68,4.59,1,3.1.6,6.25,1.07,9.42,1.45a149,149,0,0,0,19.3,1c3.24-.06,6.49-.21,9.75-.47l2.44-.23,1.22-.12,1.22-.15,2.44-.31,2.44-.37c.82-.12,1.63-.27,2.44-.42s1.63-.28,2.43-.45c1.61-.35,3.25-.67,4.85-1.08,3.24-.76,6.43-1.73,9.62-2.76-2.84,1.77-5.73,3.52-8.74,5.06-1.49.82-3,1.54-4.55,2.29-.77.37-1.55.71-2.33,1.07s-1.55.71-2.34,1l-2.37,1c-.79.32-1.59.62-2.39.93l-1.2.47-1.21.43-2.43.87q-4.89,1.65-9.92,3a161,161,0,0,1-20.52,4c-3.48.45-7,.79-10.54,1-1.78.11-3.56.18-5.37.22l-2.74,0-1.4,0-.73,0-.39,0h-.46Z"/></g></g></svg>