<?xml version="1.0" encoding="utf-8"?>
<!-- Generator: Adobe Illustrator 26.5.0, SVG Export Plug-In . SVG Version: 6.00 Build 0)  -->
<svg version="1.1" id="Calque_1" xmlns="http://www.w3.org/2000/svg" xmlns:xlink="http://www.w3.org/1999/xlink" x="0px" y="0px"
	 viewBox="0 0 127.6 127.6" style="enable-background:new 0 0 127.6 127.6;" xml:space="preserve">
<style type="text/css">
	.st0{fill:#FFFFFF;}
	.st1{fill-rule:evenodd;clip-rule:evenodd;fill:#000091;}
	.st2{fill:#000091;}
	.st3{fill:#E1000F;}
</style>
<circle class="st0" cx="64.1" cy="63.9" r="56"/>
<path class="st1" d="M103.6,103.4h-12v-8.1h-6.1v8.1h-12v-15c-1.4,0-2.5-1.1-2.5-2.5l0,0l17.6-15l7.5,6.4v-4h5v8.2l5,4.3
	c0,1.4-1.1,2.5-2.5,2.5l0,0V103.4z"/>
<g>
	<path class="st2" d="M51.7,118.8l-15.5-7.3L20.5,95.4l-9.7-20l-1.7-17l2-13.3l3.6-11.2l6.3-9.2l0.8,0.5C22.3,25.6,35,34,36.6,42.6
		c1.4,7.7,8.6,12.5,8.7,12.5l0.2,0.1l0.1,0.2l0,0c0,0,1.6,2.1,10.5,5.9c5.8,2.5,6.8,4.4,6.4,12.9c-0.2,5.2,2,17.4,8.1,23.8
		c2.4,2.5,5.3,3.8,8.3,3.8h27l-13,9.2l-19.5,10.2L51.7,118.8z"/>
	<path class="st0" d="M21.3,26.2c0,0,12.8,8.5,14.3,16.8s9.1,13.2,9.1,13.2s1.4,2.2,11,6.3c5.4,2.3,6.2,3.9,5.8,11.9S66,103,79,103
		h23.8l-10.4,7.3l-19.2,10L52,117.8l-15.2-7.2L21.3,94.8l-9.6-19.7l-1.6-16.6l2-13.1l3.5-11L21.3,26.2 M20.7,23.4L19.6,25L14,33.2
		l-0.2,0.2l-0.1,0.3l-3.5,11v0.2v0.2l-2,13.1v0.2v0.2l1.6,16.6v0.4L9.9,76l9.6,19.7l0.1,0.3l0.2,0.2L35.4,112l0.2,0.3l0.3,0.2
		l15.2,7.2l0.3,0.1h0.3l21.2,2.5l0.6,0.1l0.5-0.3l19.2-10l0.1-0.1l0.1-0.1l10.4-7.3l5.2-3.6h-6.3H79c-2.8,0-5.4-1.2-7.6-3.5
		c-5.9-6.2-8-18.1-7.8-23.1c0.4-9.3-1.2-11.3-7-13.8c-7.7-3.3-9.8-5.2-10.1-5.6l-0.2-0.5l-0.4-0.1c-0.1,0-6.9-4.6-8.3-11.9
		c-1.7-9-14.6-17.7-15.2-18.1L20.7,23.4L20.7,23.4z"/>
</g>
<circle class="st2" cx="63.4" cy="48.6" r="9.7"/>
<circle class="st2" cx="70" cy="69.8" r="5.8"/>
<circle class="st2" cx="42.3" cy="35.1" r="6.9"/>
<path class="st3" d="M63.8,122.4c-32.4,0-58.6-26.2-58.6-58.6S31.4,5.2,63.8,5.2s58.6,26.2,58.6,58.6
	C122.4,96.1,96.1,122.4,63.8,122.4z M63.8,13.2c-28,0-50.6,22.7-50.6,50.6s22.7,50.6,50.6,50.6s50.6-22.7,50.6-50.6
	C114.4,35.8,91.7,13.2,63.8,13.2z"/>
<path class="st2" d="M104.2,53.6c-0.6,0.8-1.4,0.2-1.7,0l-2-1.2l0.2,2.4c0,0.6-0.4,1-0.9,1.1h-0.1c-1.1,0.1-1.2-1.1-1.2-1.2L98.3,51
	l-3.9-2.3v4.5l3.1,2.5c0.5,0.4,0.6,1,0.2,1.5l-0.1,0.1c-0.4,0.5-1.1,0.5-1.6,0.1l-0.1-0.1l-1.5-1.5v2.9c0,0.3-0.1,1-1.1,1
	s-1-0.7-1-1.1v-2.9l-1.9,1.6c-0.4,0.4-1,0.4-1.4,0l-0.1-0.1c-0.4-0.4-0.3-1,0.1-1.4l3.3-2.6v-4.5L88.5,51l-0.6,4
	c-0.1,0.5-0.4,1.1-1.2,0.9c-0.5-0.1-0.9-0.6-0.8-1.1c0-0.1,0-0.1,0-0.2l0.3-2.4l-2.5,1.6c-0.5,0.3-1.1,0.1-1.4-0.4l0,0
	c-0.4-0.4-0.3-1,0.1-1.4c0.1-0.1,0.2-0.1,0.3-0.2l2.4-1.4l-2.3-0.8c0,0-1-0.2-0.5-1.5c0.4-1,1.6-0.5,1.6-0.5l3.6,1.5l3.9-2.2
	l-3.9-2.2l-3.8,1.8c0,0-1,0.5-1.5-0.7c-0.2-0.5,0-1.2,0.6-1.4l0,0l2.5-1l-3-1.5c-0.2-0.1-0.8-0.4-0.3-1.4s1.2-0.5,1.8-0.3l2.4,1.2
	c0,0-0.2-1.8-0.2-2.2c-0.1-0.5,0.2-1.1,0.7-1.2c0.1,0,0.2,0,0.3,0c1-0.1,1.3,0.6,1.3,1c0,0.1,0.2,3.8,0.2,3.8l3.7,2v-3.9L89,38.5
	c-0.5-0.4-0.6-1.2-0.2-1.7c0.7-1,1.8,0.2,1.8,0.2l1.4,1.3v-3.1c-0.1-0.5,0.3-1,0.9-1.1H93c0.6,0,1,0.4,1.1,0.9c0,0.1,0,0.1,0,0.2v3
	l1.9-1.7c0.4-0.4,1-0.4,1.4,0.1c0,0,0,0,0.1,0.1c0.7,0.7,0.1,1.3-0.1,1.6l-2.9,2.6v4l3.7-2l0.4-4c0-0.6,0.4-1,1-1h0.1
	c1.2,0.1,1,1.1,1,1.1l-0.2,2.4l2.5-1.7c0.5-0.3,1.1-0.2,1.4,0.3c0,0.1,0.1,0.1,0.1,0.2c0.4,0.4,0.3,1.1-0.1,1.5l-2.9,1.7l2.4,1
	c0,0,0.9,0.4,0.3,1.5c-0.4,0.5-1.1,0.7-1.6,0.3l0,0c-0.4-0.2-2.9-1.3-3.4-1.5L95.5,47l3.7,2l3.5-1.4c0.1,0,1.2-0.5,1.6,0.5
	c0.2,0.6,0,1.3-0.6,1.5l0,0l-2.1,0.9l2.3,1.5C104.5,52.3,104.6,53,104.2,53.6C104.3,53.5,104.3,53.6,104.2,53.6L104.2,53.6z"/>
<path class="st2" d="M82.1,32.5c-0.5,0.6-1,0.2-1.2,0l-1.5-0.9l0.1,1.8c0,0.4-0.3,0.8-0.7,0.8l0,0c-0.8,0.1-0.9-0.8-0.9-0.9
	l-0.2-2.8l-2.9-1.7V32l2.3,2c0.4,0.3,0.4,0.8,0.2,1.1l-0.1,0.1c-0.3,0.3-0.8,0.4-1.2,0.1l-0.1-0.1l-1.1-1.1v2.2
	c0,0.2-0.1,0.8-0.8,0.7s-0.8-0.5-0.8-0.8V34l-1.4,1.2c-0.3,0.3-0.8,0.3-1,0c0,0,0,0-0.1-0.1c-0.3-0.3-0.3-0.7,0-1l2.4-1.9v-3.4
	l-2.8,1.8l-0.5,3c0,0.4-0.3,0.7-0.7,0.7c-0.1,0-0.1,0-0.2,0c-0.4,0-0.7-0.4-0.7-0.8c0-0.1,0-0.1,0-0.2l0.2-1.8l-1.9,1.2
	c-0.3,0.2-0.8,0.1-1-0.2c0,0,0,0,0-0.1c-0.3-0.3-0.2-0.8,0.1-1.1c0.1,0,0.1-0.1,0.2-0.1l1.7-1l-1.7-0.6c0,0-0.7-0.2-0.4-1.1
	c0.3-0.7,1.2-0.4,1.2-0.4l2.7,1.1l2.9-1.6L69.3,26l-2.8,1.3c0,0-0.7,0.4-1.1-0.5c-0.2-0.4,0-0.8,0.4-1l1.8-0.8l-2.2-1.1
	c-0.1-0.1-0.6-0.3-0.2-1s0.9-0.4,1.3-0.2l1.8,0.9c0,0-0.2-1.4-0.2-1.6c-0.1-0.4,0.2-0.8,0.6-0.9c0.1,0,0.1,0,0.2,0
	c0.8-0.1,1,0.4,1,0.7c0,0.1,0.1,2.8,0.1,2.8l2.8,1.4v-2.9l-2.2-1.8c-0.4-0.3-0.5-0.9-0.2-1.3c0.5-0.7,1.3,0.1,1.3,0.1l1,1v-2.3
	c0-0.4,0.3-0.8,0.7-0.8h0.1c0.4,0,0.8,0.3,0.8,0.7v0.1V21l1.5-1.3c0.3-0.3,0.8-0.3,1,0c0,0,0,0,0.1,0.1c0.5,0.5,0.1,1-0.1,1.2l-2,2
	v3l2.8-1.5l0.3-2.9c0-0.4,0.3-0.8,0.7-0.8c0.1,0,0.1,0,0.2,0c0.4,0,0.7,0.2,0.8,0.6c0,0.1,0,0.1,0,0.2l-0.1,1.8l1.9-1.3
	c0.4-0.2,0.8-0.1,1.1,0.3v0.1c0.3,0.3,0.2,0.8-0.1,1.1L80,24.8l1.8,0.8c0,0,0.7,0.3,0.2,1.1c-0.3,0.4-0.8,0.5-1.2,0.3l0,0
	c-0.3-0.1-2.1-0.9-2.5-1.1l-2.7,1.6l2.8,1.5l2.6-1c0,0,0.9-0.4,1.2,0.4c0.2,0.4,0,0.9-0.5,1.1l0,0l-1.5,0.7l1.7,1.1
	c0.4,0.2,0.5,0.7,0.3,1.1C82.1,32.4,82.1,32.4,82.1,32.5L82.1,32.5z"/>
</svg>
