<?xml version="1.0" encoding="utf-8"?>
<!-- Generator: Adobe Illustrator 26.5.0, SVG Export Plug-In . SVG Version: 6.00 Build 0)  -->
<svg version="1.1" id="Calque_1" xmlns="http://www.w3.org/2000/svg" xmlns:xlink="http://www.w3.org/1999/xlink" x="0px" y="0px"
	 viewBox="0 0 124 125" style="enable-background:new 0 0 124 125;" xml:space="preserve">
<style type="text/css">
	.st0{fill:#FFFFFF;}
	.st1{fill:#000091;}
	.st2{fill-rule:evenodd;clip-rule:evenodd;fill:#000091;}
	.st3{fill:#E1000F;}
</style>
<circle class="st0" cx="62.1" cy="61.9" r="56"/>
<polygon class="st1" points="116.1,54 6.9,54 7.5,71 9.8,80.3 19.7,95.5 26.8,105.3 39,112.6 93.2,107.4 109.8,89.9 116.1,67 "/>
<path class="st2" d="M87.3,54h-12v-8.1h-6.1V54h-12V39c-1.4,0-2.5-1.1-2.5-2.5l17.5-15l7.5,6.5v-4.1h5v8.2l5,4.3
	c0,1.4-1.1,2.5-2.5,2.5l0,0L87.3,54z"/>
<polygon class="st1" points="109.8,88.1 13.2,88.1 36.7,111.2 45.9,114.9 64.4,117.1 80.6,113.7 93.2,107.4 "/>
<path class="st0" d="M87.1,90.5l-1.9,1.3h-6.6c0-1.5-0.5-3-1.4-4.2h9.9V90.5z"/>
<path class="st0" d="M56.2,63c-5.3,0-9.7,4.3-9.7,9.7v3.6c0,5.4,4.3,9.7,9.7,9.8l0,0h23.9c5.3,0,9.7-4.3,9.7-9.7v-3.6
	c0-5.4-4.3-9.7-9.7-9.7H56.2V63z"/>
<path class="st0" d="M71.5,86.6c-2.9,0-5.2,2.3-5.2,5.2c0,2.9,2.3,5.2,5.2,5.2s5.2-2.3,5.2-5.2l0,0C76.7,88.9,74.4,86.6,71.5,86.6z
	 M68.7,91.8c0-1.6,1.3-2.8,2.8-2.8c1.6,0,2.8,1.3,2.8,2.8c0,1.6-1.3,2.8-2.8,2.8l0,0C70,94.6,68.7,93.4,68.7,91.8L68.7,91.8z"/>
<path class="st0" d="M35.3,86.6c-2.9,0-5.2,2.3-5.2,5.2c0,2.9,2.3,5.2,5.2,5.2s5.2-2.3,5.2-5.2S38.2,86.6,35.3,86.6z M32.5,91.8
	c0-1.6,1.3-2.8,2.8-2.8c1.6,0,2.8,1.3,2.8,2.8c0,1.6-1.3,2.8-2.8,2.8l0,0C33.8,94.6,32.5,93.4,32.5,91.8L32.5,91.8z"/>
<path class="st0" d="M22.6,80v11.8h5.7c0-0.2,0-0.3,0-0.5c0.1-0.9,0.3-1.9,0.8-2.7c1.8-3.5,6-4.9,9.5-3.1c2.4,1.2,3.9,3.6,3.9,6.3
	h22c0-1.5,0.5-3,1.4-4.2h-21V63H33l-5.9,2.8l-3.8,11.4L22.6,80z M26.1,77.2l2.8-8.5h12.5v8.5H26.1z"/>
<path class="st0" d="M113.7,73.6H98.5c-1.1,0-2-0.9-2-2s0.9-2,2-2h15.2c1.1,0,2,0.9,2,2S114.8,73.6,113.7,73.6z"/>
<path class="st0" d="M113.7,87.6h-11.1c-1.1,0-2-0.9-2-2s0.9-2,2-2h11.1c1.1,0,2,0.9,2,2S114.8,87.6,113.7,87.6z"/>
<path class="st0" d="M113.2,80.6H96c-1.1,0-2-0.9-2-2s0.9-2,2-2h17.2c1.1,0,2,0.9,2,2S114.3,80.6,113.2,80.6L113.2,80.6z"/>
<path class="st3" d="M61.5,121.1c-32.4,0-58.6-26.2-58.6-58.6S29.1,3.9,61.5,3.9s58.6,26.2,58.6,58.6l0,0
	C120.1,94.9,93.9,121.1,61.5,121.1z M61.5,11.9c-28,0-50.6,22.7-50.6,50.6s22.7,50.6,50.6,50.6s50.6-22.7,50.6-50.6
	C112.1,34.5,89.4,11.9,61.5,11.9z"/>
</svg>
