<?xml version="1.0" encoding="UTF-8" standalone="no"?>
<svg
   width="80px"
   height="80px"
   viewBox="0 0 80 80"
   version="1.1"
   id="svg5"
   sodipodi:docname="stay_all_ears_light.svg"
   inkscape:version="1.4 (e7c3feb100, 2024-10-09)"
   xmlns:inkscape="http://www.inkscape.org/namespaces/inkscape"
   xmlns:sodipodi="http://sodipodi.sourceforge.net/DTD/sodipodi-0.dtd"
   xmlns="http://www.w3.org/2000/svg"
   xmlns:svg="http://www.w3.org/2000/svg">
  <defs
     id="defs5" />
  <sodipodi:namedview
     id="namedview5"
     pagecolor="#ffffff"
     bordercolor="#000000"
     borderopacity="0.25"
     inkscape:showpageshadow="2"
     inkscape:pageopacity="0.0"
     inkscape:pagecheckerboard="0"
     inkscape:deskcolor="#d1d1d1"
     inkscape:zoom="9.5"
     inkscape:cx="40"
     inkscape:cy="40"
     inkscape:window-width="1920"
     inkscape:window-height="989"
     inkscape:window-x="0"
     inkscape:window-y="0"
     inkscape:window-maximized="1"
     inkscape:current-layer="svg5" />
  <style
     id="style1">
    .fr-artwork-decorative {
      fill: #ECECFF;
    }
    .fr-artwork-minor {
      fill: #E1000F;
    }
    .fr-artwork-major {
      fill: #8585f6;
    }
  </style>
  <symbol
     id="artwork-minor">
    <path
       d="m 29.833,17.07 c 0.306008,0.460267 0.180599,1.081491 -0.28,1.387 -2.253,1.497 -4.409,3.738 -5.997,6.208 C 21.961,27.147 21,29.763 21,32.007 c 0,1.333333 -2,1.333333 -2,0 0,-2.763 1.16,-5.757 2.874,-8.424 1.722,-2.678 4.066,-5.126 6.573,-6.792 0.460071,-0.305325 1.080536,-0.179978 1.386,0.28 z"
       id="path2"
       sodipodi:nodetypes="cccsscccc" />
  </symbol>
  <symbol
     id="artwork-major">
    <path
       d="M 41.007,20 C 32.167,20 25,27.166 25,36.007 c 0,1.333333 -2,1.333333 -2,0 C 23,26.062 31.062,18 41.007,18 c 9.59,0 17.427,7.496 17.976,16.948 v 0.002 c 0.017,0.301 0.373,6.422 -3.222,11.562 -1.565,2.238 -2.944,4.434 -3.28,6.867 -0.162,1.161 -0.345,2.337 -0.509,2.91 -1.103,3.862 -3.864,6.046 -6.266,7.248 -1.011639,0.502631 -2.072638,0.899082 -3.166,1.183 -0.426264,0.110715 -0.857384,0.201811 -1.292,0.273 l -0.081,0.012 -0.024,0.003 -0.008,0.001 h -0.003 c 0,0 -10e-4,0.001 -0.125,-0.991 l 0.125,0.992 c -1.302431,0.140832 -1.546655,-1.797326 -0.25,-1.984 m 0,0 0.01,-0.002 0.054,-0.008 c 0.366622,-0.06098 0.730322,-0.138393 1.09,-0.232 0.733,-0.19 1.727,-0.512 2.775,-1.036 2.1,-1.05 4.34,-2.867 5.238,-6.008 0.117,-0.409 0.283,-1.428 0.45,-2.635 0.41,-2.962 2.067,-5.515 3.623,-7.74 3.189,-4.558 2.876,-10.09 2.864,-10.3 C 56.5,26.662 49.531,20 41.006,20 M 41,28 c -4.31,0 -8,4.118 -8,9 0,1.333333 -2,1.333333 -2,0 0,-5.755 4.368,-11 10,-11 5.586,0 10,4.824 10,10.63 0,2.597 -0.638,5.078 -2.229,7.006 -0.841467,1.09066 -2.452759,-0.238499 -1.542,-1.272 C 48.439,40.897 49,38.918 49,36.63 49,31.8 45.356,28 41,28 Z m -2,36.5 c 0,1.333333 -2,1.333333 -2,0 0,-1.333333 2,-1.333333 2,0 z"
       id="path3"
       sodipodi:nodetypes="cssscccccccccccccccccccscccccsssssccsssss" />
  </symbol>
  <use
     class="fr-artwork-minor"
     href="#artwork-minor"
     id="use4" />
  <use
     class="fr-artwork-major"
     href="#artwork-major"
     id="use5" />
</svg>
