<?xml version="1.0" encoding="UTF-8"?>
<svg version="1.1" viewBox="0 0 640 400" xmlns="http://www.w3.org/2000/svg"><path d="m406.98 92.828v198.92h33.383v-82.607c44.893 0 98.828 0.0676 98.828-57.621 0-57.689-51.486-58.687-98.828-58.687zm33.162 33.078c53.496 0 65.52 1.2045 65.551 24.549 0.0312 23.344-13.159 24.75-65.551 24.75z"/><g fill="#e1000f"><path d="m184.92 71.775c-27.662 1e-6 -50.086 22.424-50.086 50.086v140.64c0 29.143 23.626 52.77 52.77 52.77h57.828s10.766 21.575-24.4 38.424c40.95 7.7706 65.604-38.424 65.604-38.424h58.857c28.943 0 52.406-23.463 52.406-52.406v-137.74c0-29.464-23.884-53.348-53.348-53.348zm43.875 17.424 82.705 204.38h-40.768l-9.0879-24.781h-65.029l-8.8516 24.781h-40.807zm100.41 2.9395h35.512v201.07h-35.512z"/><path d="m228.93 185.84-18.123 47.34h36.244z"/></g><path d="m63.465 126.44c-12.441 0.11992-27.169 11.298-27.648 24.064s6.448 25.302 28.117 28.45 59.111 8.9307 61.812 51.366-31.31 62.463-59.241 62.371c-27.932-0.0916-63.481-16.713-63.481-58.29 11.094 0 20.493 0.12296 31.3 0.12296 0 13.878 9.2153 27.085 29.133 27.085s30.331-13.454 30.331-26.513-4.5122-22.549-35.857-26.407c-31.345-3.8584-55.871-15.416-55.971-54.79-0.099865-39.373 26.881-60.041 60.205-60.041s63.28 23.389 63.28 58.002h-32.534c0-17.6-17.004-25.54-29.445-25.42z"/><g><path d="m535.67 11.715c53.782 36.242 86.491 97.534 90.062 162.29l12.571-0.0604c-3.832-69.491-38.306-134.34-95.295-172.74z" stroke-width="1.145"/><path transform="scale(1,-1)" d="m596.57-179.24c0 58.554-30.213 112.96-79.915 143.92l7.3065 10.9c55.468-34.545 85.175-93.299 85.175-154.57z"/><path d="m498.84 59.342 6.7597-11.369c50.886 26.144 73.832 68.949 73.832 134.01h-12.523c-0.68088-65.131-17.513-95.282-68.069-122.64z"/></g></svg>
